<?xml version="1.0" encoding="UTF-8"?>
<svg version="1.1" id="Layer_1" xmlns="http://www.w3.org/2000/svg" xmlns:xlink="http://www.w3.org/1999/xlink" x="0px" y="0px" viewBox="0 0 120 120" enable-background="new 0 0 120 120" xml:space="preserve">
<g>
	<path fill="#DCDCDC" d="M99.6846,64.4786c-1.4385,0.7021-2.0391,2.4443-1.3369,3.8848c0.3398,0.6963,0.9307,1.2188,1.665,1.4717   c0.3115,0.1074,0.6318,0.1602,0.9502,0.1602c0.4346,0,0.8672-0.0986,1.2676-0.2949c0.6973-0.3398,1.2207-0.9307,1.4736-1.665   s0.2041-1.5225-0.1357-2.2197C102.8662,64.3761,101.125,63.7765,99.6846,64.4786z M102.9473,67.7745   c-0.1836,0.5322-0.5625,0.9609-1.0674,1.207c-0.502,0.2441-1.0723,0.2812-1.6064,0.0967c-0.5322-0.1826-0.9609-0.5615-1.207-1.0654   c-0.5088-1.0439-0.0732-2.3066,0.9697-2.8154c0.29-0.1416,0.6035-0.2129,0.918-0.2129c0.2314,0,0.4639,0.0381,0.6885,0.1162   c0.5322,0.1826,0.9609,0.5615,1.207,1.0664C103.0957,66.671,103.1309,67.2423,102.9473,67.7745z"/>
    <path fill="#DCDCDC" d="M89.4346,73.4698c-0.3379,0.2168-0.9121-0.0479-1.4697-0.3027c-0.6084-0.2793-1.2383-0.5693-1.7432-0.2539   c-0.4727,0.2949-0.543,0.957-0.5537,1.4287c-0.0254,0.9932,0.3477,1.8926,1.0771,2.6006c1.2256,1.1865,3.1318,1.5957,4.5498,1.5957   c0.1338,0,0.2637-0.0039,0.3877-0.0107c1.6738-0.0938,3.8066-1.4707,4.8545-3.1367c0.6074-0.9658,0.7598-1.8838,0.4404-2.6562   c-0.2217-0.5361-0.6094-0.9033-1.1201-1.0615c-1.3682-0.4268-3.2588,0.791-3.3389,0.8428   c-0.1846,0.1211-0.2373,0.3682-0.1162,0.5537c0.1221,0.1855,0.3701,0.2354,0.5537,0.1162c0.4551-0.2959,1.8213-1.0078,2.665-0.749   c0.2842,0.0879,0.4863,0.2852,0.6172,0.6035c0.2734,0.6602-0.0557,1.4111-0.3789,1.9248   c-0.9092,1.4443-2.8027,2.6846-4.2217,2.7637c-1.3838,0.0684-3.2549-0.3135-4.3359-1.3613   c-0.5732-0.5557-0.8535-1.2305-0.835-2.0059c0.0166-0.6494,0.1621-0.7588,0.1787-0.7695c0.1328-0.084,0.6475,0.1465,0.9854,0.3018   c0.6836,0.3135,1.5332,0.7021,2.2383,0.248c1.0381-0.6738,0.5137-1.8154,0.0518-2.8223c-0.3047-0.6641-0.6201-1.3506-0.6611-2.0303   c-0.0488-0.8193,0.458-1.333,0.9824-1.4795c0.3477-0.1006,0.7979-0.0576,1.0127,0.3506c0.585,1.1035,0.5713,2.5684,0.5703,2.583   c-0.0029,0.2207,0.1738,0.4023,0.3945,0.4053c0.2119,0.0244,0.4023-0.1719,0.4062-0.3926c0.001-0.0684,0.0186-1.6816-0.6641-2.9697   c-0.3555-0.6719-1.1367-0.9736-1.9346-0.7471c-0.834,0.2324-1.6416,1.0332-1.5664,2.2979   c0.0508,0.8301,0.4131,1.6191,0.7324,2.3164C89.7256,72.8126,89.8281,73.214,89.4346,73.4698z"/>
    <path fill="#DCDCDC" d="M105.0195,75.6984c-0.7334-0.2539-1.5205-0.2061-2.2188,0.1348c-0.6963,0.3398-1.2188,0.9307-1.4717,1.666   c-0.2529,0.7344-0.2051,1.5225,0.1348,2.2188c0.5029,1.0303,1.5391,1.6309,2.6152,1.6309c0.4268,0,0.8594-0.0947,1.2686-0.2939   c0.6963-0.3398,1.2197-0.9316,1.4727-1.666s0.2041-1.5225-0.1357-2.2188S105.7539,75.9513,105.0195,75.6984z M106.0635,79.1281   c-0.1836,0.5322-0.5625,0.9619-1.0664,1.208c-1.0459,0.5107-2.3057,0.0732-2.8145-0.9697   c-0.2461-0.5039-0.2803-1.0752-0.0967-1.6074c0.1826-0.5322,0.5615-0.9609,1.0664-1.207c0.2959-0.1445,0.6094-0.2129,0.918-0.2129   c0.7803,0,1.5312,0.4355,1.8955,1.1826C106.2119,78.0255,106.2471,78.5958,106.0635,79.1281z"/>
    <path fill="#DCDCDC" d="M106.9258,71.9044c0.1025-0.1016,1.6953-1.7822,1.6953-1.7822l-0.5801-0.5508   c0,0-1.5771,1.665-1.6777,1.7646c-0.1572,0.1553-0.1582,0.4082-0.0029,0.5654c0.0781,0.0791,0.1816,0.1191,0.2842,0.1191   C106.7461,72.0206,106.8477,71.9816,106.9258,71.9044z"/>
    <path fill="#DCDCDC" d="M110.0449,81.4406l3-0.4131c0.2188-0.0303,0.3721-0.2324,0.3418-0.4512s-0.2383-0.3643-0.4512-0.3418   l-3,0.4131c-0.2188,0.0303-0.3721,0.2324-0.3418,0.4512c0.0273,0.2002,0.1992,0.3457,0.3955,0.3457   C110.0078,81.4445,110.0264,81.4425,110.0449,81.4406z"/>
    <path fill="#DCDCDC" d="M114.3955,73.0577c-5.3193-9.6484-13.9883-16.1182-15.6709-17.3169   c0.4434-1.1738,0.4219-2.5205-0.1709-3.7349c-1.1406-2.3384-3.9688-3.312-6.3398-2.1538   c-0.0703,0.0439-7.1865,4.4561-13.167,11.2573c-6.0068,6.832-8.6016,18.082-8.6367,18.2549   c-0.0879,1.2568,0.3184,2.4727,1.1455,3.4238c0.8262,0.9502,1.9736,1.5225,3.2305,1.6113   c1.2598,0.0869,2.4717-0.3193,3.4238-1.1455c0.7666-0.667,1.2881-1.5439,1.5039-2.498c1.582,0.0449,5.4023,0.1436,6.8887,0.0938   c1.9824-0.0537,8.3438,1.3643,9.2119,2.3691c0.6299,0.7295,0.207,5.8242-0.2969,9.2217c-0.0801,0.7021,0.1182,1.3936,0.5586,1.9463   c0.4414,0.5537,1.0703,0.9023,1.7734,0.9814c0.1006,0.0117,0.2012,0.0166,0.2998,0.0166c1.3262,0,2.4736-0.9971,2.6221-2.3174   l0.3203-1.6641c0.042-0.2168-0.0996-0.4258-0.3174-0.4678c-0.2178-0.0391-0.4258,0.1016-0.4678,0.3174l-0.3252,1.6943   c-0.1143,1.0098-1.0166,1.7383-2.042,1.626c-0.4902-0.0557-0.9297-0.2988-1.2373-0.6846   c-0.3066-0.3857-0.4453-0.8682-0.3916-1.3447c0.2109-1.4209,1.207-8.5762,0.1094-9.8486c-1.1689-1.3525-8.04-2.7471-9.8438-2.6445   c-1.416,0.0469-5.1133-0.0469-6.7422-0.0928c0.1621-0.8818,1.4385-7.2822,5.0957-11.6982c3.9219-4.7373,5.9795-6.0791,6-6.0918   c0.1855-0.1191,0.2402-0.3662,0.1221-0.5527c-0.1182-0.1855-0.3643-0.2412-0.5508-0.123   c-0.0869,0.0547-2.1641,1.3975-6.1875,6.2578c-3.9619,4.7832-5.1505,11.3965-5.415,12.9629   c-0.2002,0.7471-0.6172,1.418-1.2139,1.9375c-0.79,0.6865-1.7988,1.0273-2.8418,0.9502c-1.0439-0.0732-1.9971-0.5479-2.6836-1.3379   c-0.6865-0.7891-1.0234-1.7988-0.959-2.7822c0.0244-0.1104,2.5762-11.166,8.4482-17.8438   c5.8975-6.707,12.915-11.0601,12.9512-11.0845c1.9365-0.9468,4.2891-0.1367,5.2354,1.8042   c0.5176,1.061,0.5107,2.2441,0.0742,3.2568c-0.0098,0.0112-0.0186,0.0229-0.0273,0.0356c-0.0332,0.0493-0.0537,0.103-0.0625,0.1577   c-0.376,0.7568-0.999,1.4033-1.8271,1.8091l-2.5762,1.6553c-0.1865,0.1191-0.2402,0.3667-0.1211,0.5527   c0.1201,0.186,0.3682,0.2383,0.5527,0.1201l2.5361-1.6323c0.8604-0.4199,1.5361-1.0688,1.9893-1.8384   c1.874,1.3481,10.1875,7.6577,15.3213,16.9712l1.3408,2.4268c2.0405,3.6901,3.7785,6.834,4.9648,9.2996v-1.8026   c-1.1061-2.171-2.5491-4.782-4.2646-7.8848L114.3955,73.0577z"/>
    <path fill="#DCDCDC" d="M116.9541,86.9015c0.1055,0,0.2119-0.042,0.29-0.125c0.1523-0.1611,0.1455-0.4141-0.0146-0.5654   l-2.2314-2.1133c-0.1621-0.1514-0.4141-0.1465-0.5654,0.0146c-0.1523,0.1611-0.1455,0.4141,0.0146,0.5654l2.2314,2.1133   C116.7568,86.8644,116.8555,86.9015,116.9541,86.9015z"/>
    <path fill="#DCDCDC" d="M114.5068,89.1837c-2.792-1.2188-4.0547-1.7363-4.582-1.1982c-0.043,0.0439-0.0752,0.0967-0.0947,0.1543   l-0.7422,2.2744c-0.0713,1.0156-0.9521,1.8037-1.9707,1.7129c-1.0146-0.0703-1.7842-0.9541-1.7129-1.9746   c0.0254-0.4336,0.2139-4.2754-1.0029-5.5693c-0.2812-0.2998-0.6318-0.458-1.0137-0.46c-0.002,0-0.0029,0-0.0049,0   c-2.2188,0-3.0146,4.5322-3.0977,5.0498c-0.0352,0.2178,0.1123,0.4229,0.3311,0.458c0.2246,0.0391,0.4238-0.1143,0.458-0.3311   c0.1846-1.1357,1.0029-4.376,2.3086-4.376c0.1602-0.002,0.3018,0.0654,0.4355,0.207c0.832,0.8848,0.8506,3.8916,0.7871,4.9707   c-0.0488,0.7051,0.1797,1.3867,0.6436,1.9199c0.4639,0.5342,1.1084,0.8545,1.8125,0.9043c0.707,0.043,1.3877-0.1797,1.9209-0.6426   c0.5332-0.4639,0.8545-1.1074,0.8848-1.7148l0.6641-2.002c0.0049,0,0.0098,0,0.0156,0c0.5469,0,2.3203,0.7744,3.6396,1.3506   c0.5947,0.2598,1.2148,0.5312,1.832,0.7871c1.4286,0.593,2.8466,1.116,3.9814,1.2563V91.146   c-1.2658-0.1886-2.9697-0.8882-3.6748-1.1801C115.7129,89.7111,115.0977,89.4425,114.5068,89.1837z"/>
    <path fill="#DCDCDC" d="M103,4.9567c-0.0811,0.0776-0.125,0.1851-0.1221,0.2974c0.002,0.1118,0.0518,0.2173,0.1357,0.2915   l1.8428,1.6182c0.0762,0.0664,0.1699,0.0991,0.2637,0.0991c0.1113,0,0.2217-0.0459,0.3008-0.1357   c0.1455-0.166,0.1289-0.4189-0.0371-0.5649l-1.5234-1.3379c0.4014-0.4199,1.125-1.2227,1.7295-2.1436   c0.3281-0.501,1.1904-1.1113,2.4307-1.7188c0.4209-0.207,0.6836-0.627,0.6855-1.0957c0.0005-0.0917-0.017-0.1793-0.0354-0.2662   h-0.8581c0.0562,0.0751,0.0942,0.1617,0.0937,0.2618c0,0.0796-0.0244,0.2769-0.2383,0.3818   c-1.4062,0.689-2.3301,1.3613-2.748,1.9985C104.1025,3.8907,103.0107,4.9459,103,4.9567z"/>
    <path fill="#DCDCDC" d="M97.1025,2.2589c0.4961,0.1333,1.9121,0.561,2.4941,0.9385c0.7783,0.5034,1.459,0.8228,1.4883,0.8359   c0.1768,0.082,0.3887,0.0254,0.499-0.1362c0.0117-0.0171,1.1777-1.7212,2.2852-3.2271c0.1999-0.2716,0.3858-0.4835,0.5663-0.67   h-1.0533c-0.0526,0.0674-0.1046,0.1245-0.1575,0.1964c-0.8438,1.147-1.7207,2.4077-2.1025,2.9614   c-0.2617-0.1357-0.6631-0.356-1.0898-0.6323c-0.8076-0.5229-2.6445-1.0186-2.7227-1.0391   c-0.2188-0.0576-0.4336,0.0693-0.4902,0.2827S96.8887,2.2018,97.1025,2.2589z"/>
    <path fill="#DCDCDC" d="M82.5605,19.4259l-0.1016,0.5435c-0.4521,2.3794-1.21,6.3613,0.7197,7.0542   c0.8213,0.2949,1.3184,0.3066,1.7178,0.3159c0.4658,0.0112,0.7744,0.0181,1.5156,0.5347c0.4863,0.3389,0.9307,0.8247,1.3613,1.2944   c0.8486,0.9277,1.7256,1.8848,2.917,1.5981c0.4297-0.104,1.043-0.4375,1.7119-0.8721c-0.0117,0.1426,0.0527,0.2871,0.1816,0.3701   c0.0723,0.0459,1.5557,0.9854,3.3799,0.9854c0.2803,0,0.5693-0.0225,0.8613-0.0732c1.583-0.2754,4.2812-3.1577,7.6445-6.897   c0.8096-0.8999,1.5508-1.7251,2.1523-2.3472c2.3896-2.4746,5.6621-5.8633,4.5479-9.7393c-1.1016-3.8296-4.5596-4.0195-4.5947-4.021   c-0.2236-0.021-0.4072,0.1616-0.416,0.3823c-0.0098,0.2207,0.1621,0.4072,0.3828,0.4165c0.0283,0.0015,2.915,0.1611,3.8584,3.4429   c0.9873,3.4321-1.9746,6.4985-4.3545,8.9629c-0.6055,0.6274-1.3545,1.46-2.1709,2.3682c-2.4268,2.6982-5.75,6.3936-7.1865,6.6436   c-1.8877,0.3281-3.6543-0.7861-3.6719-0.7974c-0.0312-0.0195-0.0635-0.0347-0.0967-0.0449   c1.5957-1.106,3.3213-2.5786,3.6035-2.8218c0.168-0.144,0.1865-0.3965,0.043-0.564c-0.1455-0.1689-0.3984-0.186-0.5645-0.0425   c-1.1426,0.9834-4.3594,3.5952-5.5,3.8711c-0.7227,0.1782-1.3818-0.5347-2.1387-1.3608c-0.46-0.502-0.9346-1.021-1.4941-1.4106   c-0.9385-0.6543-1.4316-0.666-1.9541-0.6782c-0.377-0.0088-0.7666-0.0181-1.4668-0.269c-1.2852-0.4619-0.5273-4.4492-0.2041-6.1519   l0.1035-0.5498c0.3418-1.8833,4.5039-10.8618,5.9287-13.2188c1.3838-2.2925,3.9209-3.2744,6.9561-2.6909   c2.9492,0.5654,3.3916,4.0469,3.4092,4.1948c0.0225,0.1895,0.1758,0.3374,0.3662,0.3525c0.0166,0.001,1.7207,0.1362,3.4893,0.3574   c0.6045,0.0757,1.125,0.3823,1.5059,0.8867c0.6641,0.8799,0.8848,2.3027,0.6211,4.0059c-0.4707,3.0391-5.8301,9.0859-5.8838,9.1465   c-0.1465,0.165-0.1318,0.418,0.0332,0.5649s0.417,0.1323,0.5645-0.0327c0.2275-0.2554,5.5693-6.2852,6.0771-9.5562   c0.2969-1.9189,0.0225-3.5562-0.7734-4.6104c-0.5137-0.6812-1.2217-1.0957-2.0449-1.1987   c-1.3389-0.1675-2.6396-0.2856-3.2168-0.3354c-0.2031-1.0029-1.0527-3.9966-3.9971-4.5615   c-3.3867-0.6494-6.2246,0.4678-7.792,3.0635C87.1064,8.3937,82.9229,17.4318,82.5605,19.4259z"/>
    <path fill="#DCDCDC" d="M80.3008,22.9542c0.0312,0,0.0625-0.0034,0.0947-0.0112c0.2148-0.0522,0.3457-0.2686,0.2939-0.4829   c-0.8174-3.3633,0.2412-7.3208,1.3857-10.749C82.9941,8.9513,85.5088,2.3131,89,0.2848C89.1992,0.1689,89.397,0.0756,89.5936,0   h-1.6035c-3.4023,2.5108-5.7789,8.7696-6.6746,11.4581c-1.1797,3.5356-2.2686,7.6309-1.4033,11.1904   C79.957,22.8317,80.1201,22.9542,80.3008,22.9542z"/>
    <path fill="#DCDCDC" d="M90.8506,7.8541c-1.2197,1.8066-2.4121,4.4888-2.4629,4.6021c-0.0889,0.2021,0.002,0.4385,0.2041,0.5278   c0.0527,0.0234,0.1074,0.0342,0.1621,0.0342c0.1533,0,0.2998-0.0884,0.3662-0.2378c0.0117-0.0273,1.2139-2.7314,2.3926-4.479   c0.6328-0.9365,1.6641-1.2915,3.0605-1.0571c0.0225,0.0039,0.1377,0.019,0.1602,0.019c0.2207,0,0.3867-0.1831,0.3867-0.4038   c0-0.2212-0.1934-0.4043-0.4141-0.4043C92.54,6.0944,91.416,7.0153,90.8506,7.8541z"/>
    <path fill="#DCDCDC" d="M87.5723,14.4967l-1.0801,2.7881c-0.0801,0.2061,0.0225,0.4375,0.2285,0.5176   c0.0479,0.0186,0.0967,0.0269,0.1445,0.0269c0.1602,0,0.3115-0.0967,0.373-0.2554l1.0801-2.7881   c0.0801-0.2061-0.0225-0.4375-0.2285-0.5176C87.8828,14.1886,87.6523,14.2911,87.5723,14.4967z"/>
    <path fill="#DCDCDC" d="M93.7979,1.9288c0.1064,0.1934,0.3516,0.2637,0.543,0.1597c0.1934-0.1055,0.2656-0.3477,0.1602-0.542   C94.4736,1.4955,94.0229,0.6942,93.2105,0h-1.5099C93.0086,0.5327,93.7897,1.9134,93.7979,1.9288z"/>
    <path fill="#DCDCDC" d="M88.5977,119.5929c-0.2067,0.1201-0.4086,0.2596-0.6083,0.4071h1.6031   c0.6194-0.2387,1.2256-0.2812,1.804-0.118c0.1065,0.0297,0.2028,0.0772,0.3032,0.118h1.5107   c-0.4315-0.3687-0.9598-0.7091-1.5922-0.8866C90.6328,118.8341,89.6201,118.9991,88.5977,119.5929z"/>
    <path fill="#DCDCDC" d="M108.0225,119.1486c-0.334-0.168-0.6924-0.3359-1.043-0.4785c-1.3552-0.5557-2.444-0.1485-3.5974,1.33   h1.053c0.8418-0.8721,1.5027-0.892,2.2426-0.5887c0.332,0.1338,0.6709,0.2939,0.9844,0.4512   c0.0645,0.0327,0.1105,0.0836,0.1508,0.1376h0.8577C108.5934,119.6368,108.3651,119.3226,108.0225,119.1486z"/>
    <path fill="#DCDCDC" d="M51.9175,44.798c-2.7653,3.3885-3.899,6.2829-3.3778,8.6057c-0.2243,0.3509-0.679,1.2369-0.5074,2.4803   c0.147,1.063,0.5239,1.7158,0.7583,2.0317c-0.2939,0.666-1.0322,2.5674-0.6499,4.0981c0.3379,1.3545,1.9771,4.1465,3.332,4.4043   c0.0728,0.0146,0.1445,0.0215,0.2144,0.0215c0.334,0,0.6274-0.1582,0.8413-0.4561c0.6523-0.9102-0.0469-1.7158-0.6631-2.4268   c-0.5615-0.6475-1.1973-1.3818-1.1724-2.3379c0.0396-1.5405,0.4478-2.187,0.6138-2.3882c0.5112,0.0088,1.8921-0.0386,2.5713-0.728   c0.1548-0.1577,0.1528-0.4106-0.0044-0.5659c-0.1582-0.1553-0.4111-0.1538-0.5659,0.0044   c-0.4575,0.4663-1.7275,0.5107-2.1343,0.4849c-0.0947-0.0054-0.1748,0.0195-0.2471,0.0688   c-0.0991,0.0674-0.9722,0.728-1.0332,3.1025c-0.0327,1.2676,0.7437,2.1631,1.3677,2.8828   c0.6982,0.8057,0.8643,1.0928,0.6172,1.4375c-0.0874,0.1211-0.1562,0.1338-0.2559,0.1152   c-0.854-0.1631-2.3643-2.4463-2.7051-3.8125c-0.3896-1.5615,0.6899-3.7666,0.7012-3.7891   c0.0771-0.1553,0.0415-0.3462-0.0825-0.4673c-0.0054-0.0054-0.5381-0.5366-0.7104-1.7896   c-0.0735-0.5317-0.0015-0.9714,0.1038-1.3097c0.6924,1.3579,1.8445,1.9123,1.9041,1.9391c0.1997,0.0918,0.436,0.0024,0.5278-0.1982   c0.0918-0.2002,0.0034-0.437-0.1963-0.5298c-0.0586-0.0269-1.4424-0.6851-1.8428-2.4229   c-0.4712-2.0454,0.6406-4.7939,3.2158-7.9492c4.9487-6.0645,10.6782-9.1812,16.6597-8.9526c1.1592,0.04,2.5674,0.165,3.9297,0.2852   c2.8398,0.252,5.29,0.4683,6.2266,0.0752c1.3779-0.5801,1.6846-0.4692,1.748-0.4219c0.0225,0.0176,0.0586,0.1079,0.0303,0.3257   c-0.1084,0.8276-2.9609,2.4448-8.0342,3.8105c-4.3301,1.1646-8.8135,2.8281-12.2666,7.0762   c-1.5264,1.8789-2.6982,3.7783-3.6401,5.3042c-0.9272,1.5029-1.7285,2.8008-2.2422,2.9893   c-1.0723,0.3936-1.7983,0.2114-1.8032,0.21c-0.2144-0.0625-0.4341,0.0649-0.4922,0.2783   c-0.0591,0.2129,0.0654,0.4331,0.2783,0.4922c0.0195,0.0054,0.2676,0.0723,0.6816,0.0723c0.4004,0,0.9561-0.0625,1.6104-0.3018   c0.7744-0.2837,1.5195-1.4917,2.6479-3.3203c0.9297-1.5063,2.0864-3.3809,3.5806-5.2192   c3.3096-4.0718,7.6523-5.6787,11.8525-6.8086c4.0264-1.0835,8.4043-2.8296,8.6201-4.4795   c0.0635-0.4873-0.0508-0.8457-0.3389-1.0654c-0.5586-0.4248-1.5518-0.0967-2.543,0.3208c-0.752,0.3149-3.459,0.0767-5.8457-0.1348   c-1.3721-0.1211-2.791-0.2466-3.9727-0.2881C64.9131,35.4064,58.3779,36.8824,51.9175,44.798z"/>
    <path fill="#DCDCDC" d="M57.915,48.8322c0.0269-0.0396,0.0693-0.1128,0.1284-0.2163c0.3135-0.5513,1.2686-2.229,3.2729-4.0439   c2.2998-2.0811,3.916-2.9834,3.9326-2.9927c0.1934-0.1064,0.2637-0.3501,0.1572-0.5435c-0.1074-0.1934-0.3506-0.2646-0.5439-0.1572   c-0.0684,0.0381-1.7061,0.9497-4.083,3.1006c-2.0991,1.9004-3.1016,3.6621-3.4312,4.2407   c-0.0449,0.0786-0.0762,0.1348-0.0962,0.165c-0.1235,0.1831-0.0752,0.4316,0.1079,0.5552   c0.0688,0.0464,0.1465,0.0684,0.2231,0.0684C57.7119,49.0084,57.8379,48.9469,57.915,48.8322z"/>
    <path fill="#DCDCDC" d="M66.6787,41.1515c0.0527,0,0.1064-0.0103,0.1572-0.0322l2.2129-0.9482   c0.2031-0.0869,0.2979-0.3223,0.21-0.5254c-0.0859-0.2021-0.3223-0.2954-0.5244-0.21l-2.2129,0.9482   c-0.2031,0.0869-0.2979,0.3223-0.21,0.5254C66.376,41.0607,66.5234,41.1515,66.6787,41.1515z"/>
    <path fill="#DCDCDC" d="M79.0676,107.7876c0.3657-1.7389-0.0594-3.6215-0.9006-5.0538c-0.4794-0.8157-1.3925-1.6848-2.5285-2.6744   c-0.0463-0.0404-0.0939-0.0815-0.141-0.1223c-1.743-1.5099-3.9788-3.3033-6.0123-5.6296   c-2.8003-3.2026-3.1133-6.8466-3.9907-9.2927c-0.4805-1.3385-1.2053-2.226-2.2057-2.8756   c-0.7435-0.4828-1.6482-0.8318-2.7076-1.1393c0.8868-1.2128,2.295-3.2961,2.1082-4.0673c-0.042-0.1738-0.1494-0.3125-0.3027-0.3887   c-0.4775-0.2383-1.04,0.0234-1.6372,0.3018c-0.4092,0.1914-0.9678,0.4512-1.1821,0.3223c-0.1729-0.1055-0.4019-0.2734-0.6533-0.457   c-1.0186-0.7441-1.728-1.2236-2.2466-1.0459c-0.2021,0.0664-0.3506,0.2217-0.418,0.4375   c-0.2465,0.7877,0.9918,3.5558,1.5575,4.7537c-1.6245,0.4118-2.9886,1.7825-3.9482,4.1619   c-1.4046,3.4833,2.0956,11.3853,4.7199,15.9312c2.3746,4.1138,7.0877,8.3411,10.2888,10.4199   c0.3361,0.2183,0.6562,0.4128,0.9545,0.5807c2.9843,1.6832,6.1779,0.3534,7.9639-1.6325c0.774,1.1061,2.5227,3.4933,3.3186,3.6689   c0.0537,0.0117,0.1074,0.0176,0.1602,0.0176c0.1602,0,0.3076-0.0557,0.4277-0.1631c0.4092-0.3682,0.3477-1.2178,0.208-2.4717   c-0.0342-0.3086-0.0664-0.5898-0.0723-0.791c-0.0059-0.25,0.5-0.6064,0.8691-0.8672c0.5371-0.3789,1.0449-0.7363,1.0752-1.2676   c0.0098-0.1709-0.0566-0.334-0.1875-0.457C83.0173,107.4483,80.5677,107.623,79.0676,107.7876z M58.5493,80.5568   c-0.7554-1.5967-1.5093-3.5273-1.5415-4.1074c0.3398,0.1084,1.0645,0.6377,1.4346,0.9072c0.2729,0.2002,0.522,0.3809,0.7095,0.4951   c0.5767,0.3516,1.2988,0.0156,1.936-0.2803c0.2207-0.1035,0.5898-0.2754,0.8037-0.3154c-0.1455,0.5664-1.0903,2.0928-1.9956,3.3271   c-0.0532,0.0724-0.0714,0.1569-0.0704,0.2404c-0.4263-0.084-0.8406-0.116-1.2413-0.0912   C58.5851,80.6732,58.5764,80.6136,58.5493,80.5568z M77.4302,109.5059c-1.5925,1.9925-4.5814,3.2327-7.215,1.7476   c-0.2839-0.1605-0.5913-0.3468-0.912-0.5551c-3.3178-2.1546-7.8291-6.3329-10.0317-10.149   c-3.1635-5.4798-5.7838-12.4717-4.6702-15.2322c1.2352-3.0639,3.0555-4.2923,5.4114-3.6514   c1.2843,0.3504,2.1608,0.7031,2.8405,1.1445c0.9024,0.5861,1.4849,1.3488,1.8886,2.4752c0.1459,0.4065,0.2782,0.8694,0.41,1.3502   c-0.5515-0.1034-1.6328-0.2505-2.8735-0.1091c-1.8896,0.2178-3.3193,1.1602-3.3794,1.2002   c-0.1836,0.123-0.2329,0.3711-0.1104,0.5547c0.0767,0.1152,0.2036,0.1777,0.333,0.1777c0.0762,0,0.1533-0.0215,0.2212-0.0664   c0.0132-0.0088,1.3359-0.877,3.0273-1.0713c1.5908-0.1816,2.9541,0.167,2.9668,0.1699c0.0162,0.0043,0.0326,0.0005,0.049,0.0026   c0.2747,1.0247,0.5894,2.1531,1.0618,3.3179c-0.4137,0.1378-1.3266,0.4698-2.433,1.0457l-0.1289,0.0693   c-1.458,0.7979-2.6865,1.7559-2.7383,1.7959c-0.1733,0.1367-0.2041,0.3877-0.0684,0.5615   c0.0791,0.1016,0.1973,0.1543,0.3154,0.1543c0.0869,0,0.1738-0.0283,0.2461-0.085c0.0127-0.0098,1.2305-0.959,2.6299-1.7256   l-0.1924-0.3506l0.3037,0.291c1.1365-0.5911,2.0624-0.9138,2.3907-1.0208c0.5071,1.0936,1.1664,2.2014,2.0942,3.2662   l-5.4244,3.7438c-0.1816,0.125-0.2275,0.374-0.1016,0.5566c0.0771,0.1123,0.2021,0.1729,0.3291,0.1729   c0.0791,0,0.1582-0.0234,0.2275-0.0713l5.5186-3.8088c0.7501,0.8146,1.5086,1.5699,2.2596,2.2589   c-0.3088,0.3873-1.092,1.358-2.0204,2.421c-1.2715,1.457-2.4814,2.6826-2.4932,2.6943c-0.1553,0.1572-0.1543,0.4102,0.0029,0.5654   c0.0781,0.0771,0.1797,0.1162,0.2812,0.1162c0.1035,0,0.2061-0.04,0.2842-0.1191c0.0127-0.0127,1.2383-1.2549,2.5273-2.7314   c0.9045-1.0348,1.6789-1.992,2.0144-2.4119c0.6223,0.5543,1.2361,1.0867,1.8174,1.583c0.2717,0.2317,0.5331,0.4557,0.7883,0.6761   c-0.0822,0.4513-0.3057,1.5255-0.7589,2.7534c-0.6201,1.6836-1.5859,3.248-1.5957,3.2637   c-0.1162,0.1875-0.0586,0.4346,0.1289,0.5508c0.0654,0.041,0.1387,0.0605,0.2109,0.0605c0.1338,0,0.2637-0.0674,0.3398-0.1895   c0.041-0.0664,1.0176-1.6465,1.666-3.4082c0.3611-0.9781,0.5787-1.8439,0.7025-2.4219c0.8571,0.7678,1.5461,1.4597,1.9053,2.07   C78.5399,104.9476,78.937,107.6189,77.4302,109.5059z M82.2363,109.0568c-0.5742,0.4053-1.2256,0.8643-1.207,1.543   c0.0059,0.2188,0.0391,0.5234,0.0762,0.8584c0.0508,0.4561,0.1504,1.3477,0.0752,1.6973c-0.4912-0.3203-1.79-1.9316-2.7979-3.3789   c-0.0302-0.0437-0.0684-0.0786-0.1105-0.1059c0.2383-0.3519,0.429-0.7202,0.5711-1.1042c0.0583,0.0227,0.1205,0.0366,0.1869,0.0294   c1.5205-0.1719,3.3145-0.2314,3.877-0.0781C82.7666,108.6827,82.4355,108.9171,82.2363,109.0568z"/>
    <path fill="#DCDCDC" d="M9.1455,20.8239c0.3799-0.2441,1.6191-0.8765,2.3125-0.5972c0.1646,0.0669,0.2739,0.231,0.3252,0.4873   c0.1479,0.7397-0.2695,2.0962-1.335,3.1523c-0.1567,0.1558-0.1577,0.4092-0.0024,0.5659c0.0781,0.0786,0.1812,0.1182,0.2842,0.1182   c0.1021,0,0.2036-0.0386,0.2817-0.1157c1.1455-1.1362,1.7856-2.731,1.5562-3.8779c-0.1045-0.5215-0.3916-0.9019-0.8091-1.0713   c-1.2002-0.4868-2.8608,0.5464-3.0459,0.6655c-0.186,0.1196-0.2397,0.3672-0.1201,0.5527S8.9595,20.943,9.1455,20.8239z"/>
    <path fill="#DCDCDC" d="M17.8394,33.4703c2.0957,3.1802,2.4272,7.4536,2.4302,7.4966c0.0151,0.2104,0.1909,0.3711,0.3984,0.3711   c0.0098,0,0.0195-0.0005,0.0293-0.001c0.2202-0.0161,0.3857-0.207,0.3701-0.4277c-0.0132-0.1826-0.3467-4.521-2.5601-7.8794   c-2.1118-3.2036-7.5649-5.2744-7.7964-5.3608c-0.2046-0.0776-0.4375,0.0273-0.5146,0.2339   c-0.0776,0.207,0.0273,0.4375,0.2339,0.5151C10.4844,28.4386,15.8716,30.485,17.8394,33.4703z"/>
    <path fill="#DCDCDC" d="M24.3481,38.2438c0-7.541-7.0776-13.6758-15.7769-13.6758c-3.1605,0-6.1006,0.8177-8.5713,2.2104v0.9225   c2.4311-1.4655,5.3835-2.3331,8.5713-2.3331c8.2583,0,14.9771,5.7764,14.9771,12.876c0,7.0991-6.7188,12.8745-14.9771,12.8745   c-3.1878,0-6.1402-0.8674-8.5713-2.3327v0.9222c2.4707,1.3926,5.4108,2.2103,8.5713,2.2103   C17.2705,51.9181,24.3481,45.7838,24.3481,38.2438z"/>
    <path fill="#DCDCDC" d="M4.1758,24.4601c0.0732,0.0581,0.1606,0.0859,0.2471,0.0859c0.1167,0,0.2329-0.0513,0.312-0.1499   c0.1377-0.1709,0.1104-0.4224-0.0601-0.561c-0.0078-0.0068-0.8052-0.6733-1.0688-2.208c-0.1895-1.1045,0.9312-2.5854,1.5854-3.291   c0.7979,0.5371,2.2271,1.7222,2.2954,2.8408c0.0942,1.5474-0.5234,2.3789-0.5352,2.394c-0.1353,0.1733-0.1055,0.4233,0.0674,0.5596   c0.1733,0.1367,0.4253,0.1079,0.5615-0.0654c0.0337-0.042,0.8193-1.0576,0.7051-2.937c-0.1191-1.9365-2.833-3.5791-2.9487-3.6479   c-0.1538-0.0923-0.353-0.0703-0.4834,0.0557c-0.0967,0.0938-2.3643,2.314-2.0356,4.2271   C3.1362,23.6183,4.1338,24.4269,4.1758,24.4601z"/>
    <path fill="#DCDCDC" d="M120,27.7006v-0.9223c-4.3303,2.4407-7.2061,6.6641-7.2061,11.4655c0,4.8008,2.8757,9.0237,7.2061,11.4642   v-0.9221c-3.8667-2.3303-6.4053-6.1833-6.4053-10.5421C113.5947,33.8847,116.1333,30.0313,120,27.7006z"/>
    <path fill="#DCDCDC" d="M13.5742,86.9259c-0.1997,0.0254-0.3506,0.1953-0.3506,0.3965v3.9121c0,0.123,0.0566,0.2393,0.1533,0.3154   c0.0713,0.0557,0.1582,0.085,0.2466,0.085c0.0322,0,0.0645-0.0039,0.0962-0.0117l28.9697-7.1895   c0.1787-0.0449,0.3037-0.2051,0.3037-0.3887V73.049c0-0.2207-0.1792-0.4004-0.3999-0.4004s-0.3999,0.1797-0.3999,0.4004v10.6836   l-28.1699,6.9902v-3.0693c1.0723-0.2656,2.6421-1.2305,2.6421-3.5029c0-0.9961-0.2944-1.7617-0.8755-2.2773   c-0.5879-0.5215-1.3232-0.6455-1.7812-0.667l-0.172-4.6133l17.859-4.0361c0.4526,0.8037,1.4858,1.8818,3.0332,1.627   c1.5649-0.2607,2.1675-1.6699,2.3105-2.5967l5.6304-1.1055c0.1309-0.0254,0.2407-0.1152,0.292-0.2393   c0.0513-0.123,0.0381-0.2637-0.0361-0.375c-0.0625-0.0938-1.5894-2.3311-7.1963-6.0342   c-5.6523-3.7319-10.208-3.4609-10.3984-3.4478c-0.2202,0.0151-0.3857,0.2061-0.3711,0.4263   c0.0151,0.2197,0.2056,0.3711,0.4263,0.3721c0.0405-0.0088,4.4927-0.2539,9.9028,3.3174c3.9556,2.6123,5.8374,4.4873,6.5752,5.3232   l-5.2686,1.0342c-0.1797,0.0352-0.3125,0.1895-0.3223,0.3721c-0.0044,0.0781-0.1201,1.9043-1.6758,2.1641   c-1.5635,0.2549-2.2852-1.3838-2.3154-1.4531c-0.0762-0.1768-0.2676-0.2725-0.4565-0.2344l-17.4248,3.9375   c0.6978-0.8467,1.8433-2.373,3.7505-5.1318c0.8428,0.0791,3.3389,0.1758,3.8848-1.3467c0.4614-1.2939-0.3428-2.4639-0.791-2.9844   l2.894-3.3652c0.144-0.167,0.125-0.4199-0.0425-0.5645c-0.167-0.1426-0.4194-0.124-0.564,0.043l-3.1289,3.6387   c-0.1406,0.1631-0.126,0.4092,0.0322,0.5547c0.0127,0.0117,1.2773,1.2012,0.8467,2.4082c-0.3423,0.958-2.5317,0.8936-3.272,0.7959   c-0.1455-0.0156-0.2969,0.0459-0.3818,0.1689c-1.6177,2.3461-3.4515,4.861-4.2012,5.7484   c-0.2688,0.2998-0.397,0.5912-0.3889,1.0604l0.1848,4.9579c0.0044,0.1113,0.0552,0.2158,0.1396,0.2881   c0.084,0.0732,0.1929,0.1094,0.3066,0.0947c0.0093,0,0.9604-0.1016,1.5933,0.4648c0.3999,0.3564,0.6025,0.9209,0.6025,1.6748   C15.8657,86.6046,13.668,86.9132,13.5742,86.9259z"/>
    <path fill="#DCDCDC" d="M29.1921,67.9739c0-0.8608-0.6984-1.5592-1.56-1.5592c-0.8608,0-1.5592,0.6984-1.5592,1.5592   c0,0.8608,0.6984,1.5592,1.5592,1.5592C28.4937,69.5331,29.1921,68.8347,29.1921,67.9739z M26.8729,67.9739   c0-0.4184,0.3408-0.7592,0.7592-0.7592c0.4192,0,0.76,0.3408,0.76,0.7592c0,0.4192-0.3408,0.7592-0.76,0.7592   C27.2137,68.7331,26.8729,68.3931,26.8729,67.9739z"/>
    <path fill="#DCDCDC" d="M22.9534,80.5826c0,0.8608,0.6984,1.5592,1.56,1.5592c0.8616,0,1.5592-0.6984,1.5592-1.5592   c0-0.8616-0.6976-1.5592-1.5592-1.5592C23.6517,79.0234,22.9534,79.7209,22.9534,80.5826z M25.2726,80.5826   c0,0.4192-0.3408,0.7592-0.7592,0.7592s-0.76-0.34-0.76-0.7592c0-0.4184,0.3416-0.7592,0.76-0.7592   S25.2726,80.1642,25.2726,80.5826z"/>
    <path fill="#DCDCDC" d="M32.7947,81.0294c0,0.8608,0.6984,1.5592,1.56,1.5592c0.8616,0,1.5592-0.6984,1.5592-1.5592   c0-0.8616-0.6976-1.5592-1.5592-1.5592C33.4931,79.4702,32.7947,80.1677,32.7947,81.0294z M35.1139,81.0294   c0,0.4192-0.3408,0.7592-0.7592,0.7592s-0.76-0.34-0.76-0.7592c0-0.4184,0.3416-0.7592,0.76-0.7592S35.1139,80.611,35.1139,81.0294   z"/>
    <path fill="#DCDCDC" d="M28.5879,104.5284c-0.1333-0.1436-0.3477-0.168-0.5103-0.0635c-0.7451,0.4834-1.9229,1.1387-3.3584,1.5312   c-1.1387,0.3076-2.375,0.2021-3.5762-0.3066c-3.022-1.2852-6.1167-0.9473-8.0742,0.876   c-2.7666,2.5811-2.6274,7.4219,0.3467,11.2861l1.4697,1.5938c0.2162,0.1968,0.439,0.3776,0.6631,0.5546h1.3637   c-0.5036-0.3252-0.9952-0.6953-1.4634-1.121l-1.4219-1.542c-2.6982-3.5088-2.8755-7.8877-0.4121-10.1855   c1.0171-0.9492,2.397-1.4346,3.9189-1.4346c1.0557,0,2.1797,0.2344,3.2969,0.709c1.3677,0.5801,2.7837,0.6982,4.1572,0.3252   c1.311-0.3574,2.4478-0.9473,3.2412-1.4355l0.1016,0.1094c-0.5435,0.7568-1.2056,1.8779-1.6265,3.2832   c-0.3877,1.2949-0.3271,2.7393,0.1753,4.1768c0.9714,2.7785,0.5273,5.4902-1.1471,7.1151h1.0744   c1.4684-1.8652,1.7988-4.6027,0.8276-7.3788c-0.4458-1.2773-0.5024-2.5518-0.1636-3.6836   c0.4399-1.4697,1.1655-2.6045,1.6968-3.2988c0.1191-0.1553,0.1084-0.373-0.0249-0.5156L28.5879,104.5284z"/>
    <path fill="#DCDCDC" d="M24.0884,112.3605c0.1362-0.1729,0.1064-0.4248-0.0669-0.5615c-0.1743-0.1367-0.4248-0.1064-0.562,0.0674   c-0.7422,0.9424-1.6841,1.9531-2.7236,2.9219c-1.1235,1.0488-2.2949,1.9766-3.3867,2.6846   c-0.1851,0.1201-0.2378,0.3682-0.1177,0.5537c0.0767,0.1182,0.2046,0.1826,0.3359,0.1826c0.0742,0,0.1499-0.0215,0.2173-0.0645   c1.1304-0.7334,2.3394-1.6914,3.4971-2.7705C22.3506,114.3771,23.3208,113.3351,24.0884,112.3605z"/>
    <path fill="#DCDCDC" d="M15.2773,115.7784c0.1196,0,0.2378-0.0537,0.3169-0.1553c0.7915-1.0215,1.8115-2.123,2.9502-3.1846   c0.9883-0.9229,2.0317-1.7715,3.0171-2.4541c0.1816-0.126,0.2266-0.376,0.1006-0.5566c-0.126-0.1816-0.3745-0.2266-0.5566-0.1016   c-1.0161,0.7051-2.0908,1.5791-3.1069,2.5264c-1.1694,1.0908-2.2192,2.2256-3.0371,3.2803   c-0.1353,0.1748-0.103,0.4258,0.0713,0.5615C15.106,115.7511,15.1919,115.7784,15.2773,115.7784z"/>
    <path fill="#DCDCDC" d="M12.7954,119.4718c-0.0294,0.0023-0.5825,0.0591-1.2466,0.5282h1.6563   c0.0175-0.0507,0.026-0.1052,0.0214-0.162C13.2085,119.6183,13.0142,119.4591,12.7954,119.4718z"/>
    <path fill="#DCDCDC" d="M11.418,118.4523c0.228,0.0518,0.4072-0.1631,0.4155-0.3838s-0.1636-0.4072-0.3843-0.415   c-1.104-0.0381-2.2075,0.3887-2.6826,1.0488c-0.2319,0.3232-0.292,0.6777-0.1694,1c0.041,0.107,0.0973,0.2061,0.1645,0.2977h1.3223   c-0.3179-0.1427-0.6493-0.3491-0.7393-0.5839c-0.0303-0.0791,0.022-0.1777,0.0718-0.2471   C9.6851,118.795,10.4639,118.4269,11.418,118.4523z"/>
    <path fill="#DCDCDC" d="M26.2363,114.3702c-0.2017-0.083-0.4375,0.0078-0.5249,0.2109c-0.4907,1.1484-1.2646,2.2354-2.2383,3.1426   c-0.9541,0.8896-2.0708,1.5771-3.229,1.9873c-0.1334,0.047-0.2191,0.1603-0.2489,0.2889h1.5888   c0.8699-0.4355,1.6989-1.0042,2.435-1.6903c1.0547-0.9844,1.894-2.1641,2.4277-3.4141   C26.5337,114.6925,26.4395,114.4572,26.2363,114.3702z"/>
    <path fill="#DCDCDC" d="M18.8828,107.5646l0.2339-0.085c0.209-0.0723,0.3198-0.2998,0.2476-0.5088   c-0.0723-0.208-0.3013-0.3174-0.5083-0.2471l-0.2578,0.0928c-1.1973,0.4551-2.3516,1.1807-3.3374,2.1006   c-1.0283,0.959-1.8579,2.1064-2.3989,3.3193c-0.0898,0.2021,0.0005,0.4385,0.2021,0.5283   c0.0532,0.0234,0.1084,0.0352,0.1631,0.0352c0.1528,0,0.2988-0.0889,0.3652-0.2373c0.498-1.1162,1.2637-2.1738,2.2144-3.0605   C16.7173,108.6525,17.7808,107.9825,18.8828,107.5646z"/>
    <path fill="#DCDCDC" d="M26.2114,0.6598c0.2181-0.2034,0.412-0.4275,0.595-0.6598h-1.0732   c-0.0242,0.0235-0.0429,0.0518-0.0676,0.0748C23.5153,2.0804,19.967,1.9727,16.9118,0h-1.3612   c1.9394,1.5308,4.1469,2.3273,6.1852,2.3273C23.4321,2.3273,25.0093,1.7804,26.2114,0.6598z"/>
    <path fill="#DCDCDC" d="M10.3794,0.9528c0.1084,0.0278,0.2188,0.0073,0.3076-0.0469c-0.5273,1.0293-0.2202,2.5723-0.1782,2.7681   c0.0381,0.1768,0.1899,0.3062,0.3706,0.3154c0.0371,0.002,0.1221,0.0054,0.2412,0.0054c0.6162,0,2.1519-0.0928,2.8232-0.9771   c0.7822-1.0273,0.7202-1.9214,0.7173-1.959c-0.0176-0.2178-0.2051-0.3779-0.4263-0.3643C14.0161,0.7096,13.8506,0.9,13.8633,1.1188   c0.0015,0.0259,0.0298,0.6455-0.5562,1.4146c-0.3882,0.5112-1.4385,0.644-2.0693,0.6597c-0.0859-0.6255-0.123-1.6836,0.3184-2.1494   c0.6621-0.6968,1.2764-0.7715,1.3081-0.7749C13.0258,0.2538,13.1553,0.1443,13.205,0h-1.6562   c-0.1856,0.131-0.3785,0.2885-0.5727,0.4928c-0.0356,0.0376-0.0688,0.0762-0.1006,0.1167c0.022-0.1958-0.103-0.3823-0.2988-0.4321   C10.4541,0.1462,10.2772,0.08,10.0962,0H8.7617C9.2339,0.6448,10.2503,0.9199,10.3794,0.9528z"/>
    <path fill="#DCDCDC" d="M38.6416,14.9518c0.2207,0.0728,0.4839,0.1099,0.7822,0.1099c1.957,0,5.4907-1.666,6.459-2.3696   c1.126-0.8193,1.4038-2.2798,0.8735-4.5947c-0.5371-2.3452-2.8125-3.1753-2.9092-3.2095c-0.0547-0.0195-0.1118-0.0254-0.1733-0.021   c0,0-5.8867,0.5898-6.335,0.6284c-2.0039,0.1743-1.7935,3.2593-1.668,5.1025C35.8203,12.7853,36.9028,14.3717,38.6416,14.9518z    M37.4077,6.2921c0.4146-0.0356,5.4805-0.5425,6.2485-0.6196c0.3667,0.1558,1.9326,0.9126,2.3198,2.6035   c0.4565,1.9907,0.2822,3.1533-0.564,3.769c-0.6372,0.4634-2.5659,1.4185-4.2529,1.9102c0.3003-0.4707,0.8413-1.5166,0.8413-2.9355   c0-3.0127-1.4487-3.667-1.9946-3.9131c-0.0352-0.0161-0.0654-0.0288-0.0879-0.0405c-0.1567-0.127-0.3867-0.1177-0.5332,0.0278   c-0.1562,0.1558-0.1572,0.4092-0.0015,0.5659c0.0786,0.0791,0.1738,0.1216,0.2935,0.1758c0.4561,0.2061,1.5239,0.688,1.5239,3.1841   c0,1.625-0.8467,2.6943-0.855,2.7051c-0.104,0.1289-0.1152,0.3032-0.0415,0.4404c-0.5771,0.1108-1.1011,0.1304-1.4106,0.0273   c-1.4355-0.4785-2.2964-1.7749-2.4248-3.6494C36.3223,8.3907,36.3345,6.3854,37.4077,6.2921z"/>
    <path fill="#DCDCDC" d="M49.0195,18.0289c0.1821,0,0.3472-0.1255,0.3896-0.311c0.0488-0.2153-0.0859-0.4297-0.3013-0.479   c-0.0098-0.002-0.9844-0.2275-2.4644-0.793c-1.4238-0.5439-2.6299-1.7803-2.6421-1.7925   c-0.1533-0.1587-0.4067-0.1636-0.5654-0.0098c-0.1587,0.1533-0.1636,0.4062-0.0103,0.5654   c0.0542,0.0557,1.3389,1.375,2.9321,1.9839c1.5376,0.5879,2.5308,0.8164,2.5723,0.8262   C48.96,18.026,48.9902,18.0289,49.0195,18.0289z"/>
    <path fill="#DCDCDC" d="M42.4766,3.8136c0.1182,0.186,0.3647,0.2432,0.5513,0.1255c0.0532-0.0327,1.3081-0.7959,2.6875,0.0068   c1.75,1.022,2.5532,2.7827,2.9189,4.0801c0.4849,1.7197,0.0005,4.4805-0.7061,5.1265c-0.707,0.645-1.79,0.3618-1.8008,0.3584   c-0.2153-0.0557-0.4331,0.0674-0.4912,0.2798c-0.0586,0.2124,0.0649,0.4321,0.2773,0.4912   c0.0278,0.0078,0.3491,0.0947,0.7896,0.0947c0.5186,0,1.2021-0.1206,1.7646-0.6333c1.0688-0.9775,1.4336-4.1719,0.936-5.9341   c-0.4053-1.4395-1.3047-3.3975-3.2852-4.5542c-1.8086-1.0527-3.4492-0.0356-3.519,0.0083   C42.4141,3.3815,42.3594,3.6271,42.4766,3.8136z"/>
    <path fill="#DCDCDC" d="M55.9048,7.4181c0.021,0.2056,0.1948,0.3594,0.3975,0.3594c0.0137,0,0.0269-0.0005,0.0405-0.002   c0.2197-0.0225,0.3799-0.2183,0.3579-0.438c-0.021-0.207-0.5415-5.0898-3.2456-7.3267C53.4507,0.0073,53.4456,0.0036,53.4412,0   h-1.3359c0.303,0.2073,0.5875,0.4181,0.84,0.6271C55.3945,2.6534,55.8999,7.3702,55.9048,7.4181z"/>
    <path fill="#DCDCDC" d="M66.3916,18.5372c0.4033,1.5806,0.5264,3.1094,0.5283,3.1245c0.0166,0.2095,0.1914,0.3687,0.3984,0.3687   c0.0098,0,0.0205-0.0005,0.0312-0.001c0.2207-0.0176,0.3848-0.21,0.3672-0.4302c-0.0049-0.0649-0.1289-1.6099-0.5498-3.2598   c-0.3945-1.542-1.0703-3.1382-1.0986-3.2051c-0.0859-0.2041-0.3232-0.2964-0.5244-0.2119   c-0.2031,0.0864-0.2979,0.3213-0.2119,0.5244C65.3389,15.463,66.0127,17.0558,66.3916,18.5372z"/>
    <path fill="#DCDCDC" d="M50.0527,22.587c-1.3828,1.1235-2.9507,2.397-1.9297,4.3965c0.9067,1.7739,1.1226,1.9976,1.7646,2.6631   c0.1401,0.1455,0.3027,0.314,0.5005,0.5283c0.7715,0.8354,2.0889,1.4097,3.1997,1.4097c0.061,0,0.1221-0.002,0.1816-0.0054   c0.7305-0.0435,1.3145-0.3394,1.689-0.8564c0.4277-0.5913,0.6616-1.043,0.8677-1.4419c0.2603-0.5034,0.4658-0.9009,0.9844-1.4419   c0.6724-0.7007,1.3359-1.1328,1.6499-1.3174c1.332,0.8237,2.8745,1.4399,4.5239,1.4399c1.3369,0,2.6523-0.397,3.9111-1.1807   c1.5312-0.9536,2.3984-2.3765,2.5762-4.229c0.3789-3.9487-2.458-8.5854-4.4941-10.4761c-3.4639-3.2163-7.459-3.9058-11.8042-2.0542   c-1.4585,0.6216-2.3584,1.6509-2.6753,3.0601c-0.4282,1.9048,0.2881,4.1992,1.335,6.1953c0.001,0.3057-0.0923,1.3765-1.3306,2.5078   C50.6992,22.0621,50.3735,22.3263,50.0527,22.587z M51.7783,13.257c0.2573-1.1436,1.0005-1.9844,2.2085-2.499   c4.0879-1.7412,7.6841-1.1245,10.9458,1.9038c1.9961,1.8525,4.5801,6.2939,4.2422,9.814c-0.1523,1.5908-0.8936,2.811-2.2021,3.6265   c-1.1299,0.7031-2.3037,1.0596-3.4883,1.0596c-3.8027,0-7.1021-3.7197-8.186-4.9424c-0.6934-0.7812-1.5117-1.9277-2.1958-3.208   c-0.0122-0.0342-0.0293-0.0659-0.0498-0.0942C52.0791,17.067,51.3975,14.9518,51.7783,13.257z M52.938,20.3419   c0.5757,0.9404,1.1982,1.7729,1.7617,2.4087c0.6045,0.6812,1.8623,2.0996,3.5288,3.2842c-0.3906,0.2583-0.938,0.6699-1.4951,1.2505   c-0.5991,0.6245-0.8511,1.1118-1.1177,1.6279c-0.2031,0.3926-0.4126,0.7979-0.8052,1.3403   c-0.2324,0.3208-0.5986,0.498-1.0884,0.5269c-0.9097,0.0601-2.0918-0.4395-2.7461-1.1479   c-0.2026-0.2197-0.3691-0.3926-0.5127-0.5415c-0.6113-0.6333-0.7754-0.8037-1.6279-2.4712   c-0.6914-1.354,0.2041-2.1787,1.7217-3.4116c0.333-0.2705,0.6704-0.5449,0.9854-0.8325   C52.3364,21.65,52.7373,20.9244,52.938,20.3419z"/>
    <path fill="#DCDCDC" d="M40.6562,4.8102c0.2207,0,0.3999-0.1792,0.3999-0.3999c0-0.025,0.0245-2.233,1.7392-4.4103H41.801   c-1.5208,2.211-1.5446,4.3038-1.5446,4.4103C40.2563,4.631,40.4355,4.8102,40.6562,4.8102z"/>
    <path fill="#DCDCDC" d="M43.0312,118.547c-0.4937,0.4769-0.8968,0.9678-1.2305,1.453h0.9948   c0.2321-0.2947,0.493-0.5888,0.7913-0.8768c2.2537-2.1777,6.0953-0.7823,8.5181,0.8768h1.3362   C50.8538,117.8638,45.956,115.7217,43.0312,118.547z"/>
    <path fill="#DCDCDC" d="M0,85.4545c1.4404,3.0409,1.9918,4.9991,1.1362,5.5876C0.8931,91.2084,0.4811,91.2265,0,91.1675v0.8058   c0.6467,0.0632,1.1975-0.0027,1.5894-0.2721C3.0361,90.7062,2.2822,88.1566,0,83.6367V85.4545z"/>
</g>
</svg>
